<?xml version="1.0" encoding="UTF-8" standalone="no"?>
<!DOCTYPE svg PUBLIC "-//W3C//DTD SVG 1.1//EN"
 "http://www.w3.org/Graphics/SVG/1.1/DTD/svg11.dtd">
<!-- Generated by graphviz version 16.1.0 (20260904.0139)
 -->
<!-- Title: ScreenNavigation Pages: 1 -->
<svg width="1610pt" height="1022pt"
 viewBox="0.00 0.00 1610.00 1022.00" xmlns="http://www.w3.org/2000/svg" xmlns:xlink="http://www.w3.org/1999/xlink">
<g id="graph0" class="graph" transform="scale(1 1) rotate(0) translate(21.6 1000.1)">
<title>ScreenNavigation</title>
<polygon fill="white" stroke="none" points="-21.6,21.6 -21.6,-1000.1 1588.6,-1000.1 1588.6,21.6 -21.6,21.6"/>
<text xml:space="preserve" text-anchor="start" x="668.65" y="-963.8" font-family="Arial" font-weight="bold" font-size="13.00">IELTSPath — Screen Navigation Flow</text>
<text xml:space="preserve" text-anchor="start" x="662.46" y="-952.6" font-family="Arial" font-size="11.00" fill="#595959">FDS Figure 1.1 · numbers are FDS sections (2.x)</text>
<text xml:space="preserve" text-anchor="start" x="781.69" y="-939.8" font-family="Arial" font-size="13.00"> </text>
<g id="clust1" class="cluster">
<title>cluster_public</title>
<path fill="#f5f5f5" stroke="#bfbfbf" d="M574,-654.7C574,-654.7 1174,-654.7 1174,-654.7 1180,-654.7 1186,-660.7 1186,-666.7 1186,-666.7 1186,-913.5 1186,-913.5 1186,-919.5 1180,-925.5 1174,-925.5 1174,-925.5 574,-925.5 574,-925.5 568,-925.5 562,-919.5 562,-913.5 562,-913.5 562,-666.7 562,-666.7 562,-660.7 568,-654.7 574,-654.7"/>
<text xml:space="preserve" text-anchor="start" x="808" y="-911.7" font-family="Arial" font-weight="bold" font-size="12.00" fill="#404040">① PUBLIC — no sign&#45;in</text>
</g>
<g id="clust2" class="cluster">
<title>cluster_learning</title>
<path fill="#f3f8fd" stroke="#9dc3e6" d="M20,-8C20,-8 631,-8 631,-8 637,-8 643,-14 643,-20 643,-20 643,-439.76 643,-439.76 643,-445.76 637,-451.76 631,-451.76 631,-451.76 20,-451.76 20,-451.76 14,-451.76 8,-445.76 8,-439.76 8,-439.76 8,-20 8,-20 8,-14 14,-8 20,-8"/>
<text xml:space="preserve" text-anchor="start" x="216.48" y="-437.96" font-family="Arial" font-weight="bold" font-size="12.00" fill="#1f4e79">② LEARNING LOOP — /learn</text>
<text xml:space="preserve" text-anchor="start" x="378.5" y="-437.96" font-family="Arial" font-size="12.00" fill="#1f4e79"> · real API</text>
</g>
<g id="clust3" class="cluster">
<title>cluster_proto</title>
<path fill="#fef6f0" stroke="#f4b183" d="M663,-185.6C663,-185.6 1026,-185.6 1026,-185.6 1032,-185.6 1038,-191.6 1038,-197.6 1038,-197.6 1038,-439.76 1038,-439.76 1038,-445.76 1032,-451.76 1026,-451.76 1026,-451.76 663,-451.76 663,-451.76 657,-451.76 651,-445.76 651,-439.76 651,-439.76 651,-197.6 651,-197.6 651,-191.6 657,-185.6 663,-185.6"/>
<text xml:space="preserve" text-anchor="start" x="762.48" y="-437.96" font-family="Arial" font-weight="bold" font-size="12.00" fill="#843c0c">③ PROTOTYPES</text>
<text xml:space="preserve" text-anchor="start" x="857.83" y="-437.96" font-family="Arial" font-size="12.00" fill="#843c0c"> · mock data</text>
</g>
<g id="clust4" class="cluster">
<title>cluster_self</title>
<path fill="white" stroke="#8c8c8c" stroke-dasharray="5,2" d="M1058,-96.8C1058,-96.8 1269,-96.8 1269,-96.8 1275,-96.8 1281,-102.8 1281,-108.8 1281,-108.8 1281,-441.3 1281,-441.3 1281,-447.3 1275,-453.3 1269,-453.3 1269,-453.3 1058,-453.3 1058,-453.3 1052,-453.3 1046,-447.3 1046,-441.3 1046,-441.3 1046,-108.8 1046,-108.8 1046,-102.8 1052,-96.8 1058,-96.8"/>
<text xml:space="preserve" text-anchor="start" x="1053.82" y="-439.5" font-family="Arial" font-weight="bold" font-size="12.00" fill="#595959">④ SELF&#45;STUDY &amp; ACCOUNT</text>
<text xml:space="preserve" text-anchor="start" x="1217.82" y="-439.5" font-family="Arial" font-size="12.00" fill="#595959"> · not built</text>
</g>
<g id="clust5" class="cluster">
<title>cluster_staff</title>
<path fill="white" stroke="#8c8c8c" stroke-dasharray="5,2" d="M1301,-185.6C1301,-185.6 1547,-185.6 1547,-185.6 1553,-185.6 1559,-191.6 1559,-197.6 1559,-197.6 1559,-439.76 1559,-439.76 1559,-445.76 1553,-451.76 1547,-451.76 1547,-451.76 1301,-451.76 1301,-451.76 1295,-451.76 1289,-445.76 1289,-439.76 1289,-439.76 1289,-197.6 1289,-197.6 1289,-191.6 1295,-185.6 1301,-185.6"/>
<text xml:space="preserve" text-anchor="start" x="1296.95" y="-437.96" font-family="Arial" font-weight="bold" font-size="12.00" fill="#595959">⑤ STAFF</text>
<text xml:space="preserve" text-anchor="start" x="1348.94" y="-437.96" font-family="Arial" font-size="12.00" fill="#595959"> · not built · opened by role (GAP&#45;02)</text>
</g>
<!-- Home -->
<g id="node1" class="node">
<title>Home</title>
<path fill="#deebf7" stroke="#2e75b6" stroke-width="1.3" d="M690.8,-889.1C690.8,-889.1 601.2,-889.1 601.2,-889.1 595.2,-889.1 589.2,-883.1 589.2,-877.1 589.2,-877.1 589.2,-865.1 589.2,-865.1 589.2,-859.1 595.2,-853.1 601.2,-853.1 601.2,-853.1 690.8,-853.1 690.8,-853.1 696.8,-853.1 702.8,-859.1 702.8,-865.1 702.8,-865.1 702.8,-877.1 702.8,-877.1 702.8,-883.1 696.8,-889.1 690.8,-889.1"/>
<text xml:space="preserve" text-anchor="start" x="621.55" y="-872.2" font-family="Arial" font-weight="bold" font-size="11.00" fill="#1f1f1f">2.1 Home</text>
<text xml:space="preserve" text-anchor="start" x="600.72" y="-863" font-family="Arial" font-size="9.00" fill="#595959">/home · landing, plans</text>
</g>
<!-- Vocab -->
<g id="node2" class="node">
<title>Vocab</title>
<path fill="#fbe5d6" stroke="#c55a11" stroke-width="1.3" d="M860.4,-889.1C860.4,-889.1 777.6,-889.1 777.6,-889.1 771.6,-889.1 765.6,-883.1 765.6,-877.1 765.6,-877.1 765.6,-865.1 765.6,-865.1 765.6,-859.1 771.6,-853.1 777.6,-853.1 777.6,-853.1 860.4,-853.1 860.4,-853.1 866.4,-853.1 872.4,-859.1 872.4,-865.1 872.4,-865.1 872.4,-877.1 872.4,-877.1 872.4,-883.1 866.4,-889.1 860.4,-889.1"/>
<text xml:space="preserve" text-anchor="start" x="777.12" y="-872.2" font-family="Arial" font-weight="bold" font-size="11.00" fill="#1f1f1f">2.28 Vocabulary</text>
<text xml:space="preserve" text-anchor="start" x="795.99" y="-863" font-family="Arial" font-size="9.00" fill="#595959">/vocabulary</text>
</g>
<!-- Home&#45;&gt;Vocab -->
<g id="edge3" class="edge">
<title>Home&#45;&gt;Vocab</title>
<path fill="none" stroke="#4a6e96" stroke-width="1.1" d="M703.13,-871.1C720.3,-871.1 739.22,-871.1 756.7,-871.1"/>
<polygon fill="#4a6e96" stroke="#4a6e96" stroke-width="1.1" points="756.49,-873.55 763.49,-871.1 756.49,-868.65 756.49,-873.55"/>
<text xml:space="preserve" text-anchor="middle" x="734.2" y="-876.8" font-family="Arial" font-size="9.00" fill="#33475b"> Từ điển</text>
</g>
<!-- Login -->
<g id="node3" class="node">
<title>Login</title>
<path fill="#deebf7" stroke="#2e75b6" stroke-width="2.2" d="M775.66,-802.3C775.66,-802.3 728.34,-802.3 728.34,-802.3 722.34,-802.3 716.34,-796.3 716.34,-790.3 716.34,-790.3 716.34,-778.3 716.34,-778.3 716.34,-772.3 722.34,-766.3 728.34,-766.3 728.34,-766.3 775.66,-766.3 775.66,-766.3 781.66,-766.3 787.66,-772.3 787.66,-778.3 787.66,-778.3 787.66,-790.3 787.66,-790.3 787.66,-796.3 781.66,-802.3 775.66,-802.3"/>
<text xml:space="preserve" text-anchor="start" x="727.86" y="-785.4" font-family="Arial" font-weight="bold" font-size="11.00" fill="#1f1f1f">2.2 Login</text>
<text xml:space="preserve" text-anchor="start" x="741.24" y="-776.2" font-family="Arial" font-size="9.00" fill="#595959">/login</text>
</g>
<!-- Home&#45;&gt;Login -->
<g id="edge1" class="edge">
<title>Home&#45;&gt;Login</title>
<path fill="none" stroke="#4a6e96" stroke-width="1.1" d="M667.96,-852.53C683.92,-839.77 705.66,-822.37 723.04,-808.47"/>
<polygon fill="#4a6e96" stroke="#4a6e96" stroke-width="1.1" points="724.46,-810.47 728.4,-804.18 721.4,-806.64 724.46,-810.47"/>
<text xml:space="preserve" text-anchor="middle" x="729.11" y="-825" font-family="Arial" font-size="9.00" fill="#33475b"> Đăng nhập</text>
</g>
<!-- Register -->
<g id="node4" class="node">
<title>Register</title>
<path fill="#deebf7" stroke="#2e75b6" stroke-width="1.3" d="M649.7,-704.7C649.7,-704.7 588.3,-704.7 588.3,-704.7 582.3,-704.7 576.3,-698.7 576.3,-692.7 576.3,-692.7 576.3,-680.7 576.3,-680.7 576.3,-674.7 582.3,-668.7 588.3,-668.7 588.3,-668.7 649.7,-668.7 649.7,-668.7 655.7,-668.7 661.7,-674.7 661.7,-680.7 661.7,-680.7 661.7,-692.7 661.7,-692.7 661.7,-698.7 655.7,-704.7 649.7,-704.7"/>
<text xml:space="preserve" text-anchor="start" x="587.82" y="-687.8" font-family="Arial" font-weight="bold" font-size="11.00" fill="#1f1f1f">2.3 Register</text>
<text xml:space="preserve" text-anchor="start" x="602.74" y="-678.6" font-family="Arial" font-size="9.00" fill="#595959">/register</text>
</g>
<!-- Home&#45;&gt;Register -->
<g id="edge2" class="edge">
<title>Home&#45;&gt;Register</title>
<path fill="none" stroke="#4a6e96" stroke-width="1.1" d="M643.41,-852.61C638.63,-820.33 628.41,-751.27 622.83,-713.56"/>
<polygon fill="#4a6e96" stroke="#4a6e96" stroke-width="1.1" points="625.27,-713.35 621.82,-706.78 620.43,-714.07 625.27,-713.35"/>
<text xml:space="preserve" text-anchor="middle" x="652.88" y="-781.6" font-family="Arial" font-size="9.00" fill="#33475b"> Đăng ký</text>
</g>
<!-- Login&#45;&gt;Register -->
<g id="edge4" class="edge">
<title>Login&#45;&gt;Register</title>
<path fill="none" stroke="#4a6e96" stroke-width="1.1" d="M708.29,-761.27C700.17,-756.64 691.9,-751.56 684.47,-746.3 669.62,-735.8 654.4,-722.37 642.38,-711.02"/>
<polygon fill="#4a6e96" stroke="#4a6e96" stroke-width="1.1" points="706.92,-763.31 714.23,-764.57 709.3,-759.03 706.92,-763.31"/>
<polygon fill="#4a6e96" stroke="#4a6e96" stroke-width="1.1" points="644.36,-709.52 637.61,-706.45 640.97,-713.06 644.36,-709.52"/>
<text xml:space="preserve" text-anchor="middle" x="715.23" y="-738.2" font-family="Arial" font-size="9.00" fill="#33475b"> Đăng ký ngay /</text>
<text xml:space="preserve" text-anchor="middle" x="715.23" y="-727.4" font-family="Arial" font-size="9.00" fill="#33475b"> Đăng nhập</text>
</g>
<!-- Forgot -->
<g id="node5" class="node">
<title>Forgot</title>
<path fill="#deebf7" stroke="#2e75b6" stroke-width="1.3" d="M805.61,-704.7C805.61,-704.7 698.39,-704.7 698.39,-704.7 692.39,-704.7 686.39,-698.7 686.39,-692.7 686.39,-692.7 686.39,-680.7 686.39,-680.7 686.39,-674.7 692.39,-668.7 698.39,-668.7 698.39,-668.7 805.61,-668.7 805.61,-668.7 811.61,-668.7 817.61,-674.7 817.61,-680.7 817.61,-680.7 817.61,-692.7 817.61,-692.7 817.61,-698.7 811.61,-704.7 805.61,-704.7"/>
<text xml:space="preserve" text-anchor="start" x="697.91" y="-687.8" font-family="Arial" font-weight="bold" font-size="11.00" fill="#1f1f1f">2.4 Forgot Password</text>
<text xml:space="preserve" text-anchor="start" x="718.49" y="-678.6" font-family="Arial" font-size="9.00" fill="#595959">/forgot&#45;password</text>
</g>
<!-- Login&#45;&gt;Forgot -->
<g id="edge5" class="edge">
<title>Login&#45;&gt;Forgot</title>
<path fill="none" stroke="#4a6e96" stroke-width="1.1" d="M752,-765.32C752,-750.81 752,-730.19 752,-713.85"/>
<polygon fill="#4a6e96" stroke="#4a6e96" stroke-width="1.1" points="754.45,-713.94 752,-706.94 749.55,-713.94 754.45,-713.94"/>
<text xml:space="preserve" text-anchor="middle" x="789.02" y="-732.8" font-family="Arial" font-size="9.00" fill="#33475b"> Quên mật khẩu?</text>
</g>
<!-- OAuth -->
<g id="node7" class="node">
<title>OAuth</title>
<path fill="none" stroke="#8c8c8c" stroke-width="1.3" stroke-dasharray="5,2" d="M1159.65,-704.7C1159.65,-704.7 1060.35,-704.7 1060.35,-704.7 1054.35,-704.7 1048.35,-698.7 1048.35,-692.7 1048.35,-692.7 1048.35,-680.7 1048.35,-680.7 1048.35,-674.7 1054.35,-668.7 1060.35,-668.7 1060.35,-668.7 1159.65,-668.7 1159.65,-668.7 1165.65,-668.7 1171.65,-674.7 1171.65,-680.7 1171.65,-680.7 1171.65,-692.7 1171.65,-692.7 1171.65,-698.7 1165.65,-704.7 1159.65,-704.7"/>
<text xml:space="preserve" text-anchor="start" x="1059.87" y="-687.8" font-family="Arial" font-weight="bold" font-size="11.00" fill="#595959">2.6 OAuth Callback</text>
<text xml:space="preserve" text-anchor="start" x="1069.97" y="-678.6" font-family="Arial" font-size="9.00" fill="#595959">/auth/oauth/callback</text>
</g>
<!-- Login&#45;&gt;OAuth -->
<g id="edge8" class="edge">
<title>Login&#45;&gt;OAuth</title>
<path fill="none" stroke="#8c8c8c" stroke-width="1.1" stroke-dasharray="5,2" d="M788.75,-775.71C821.9,-768.69 871.93,-757.65 915,-746.3 959.52,-734.57 1009.21,-719.61 1047.29,-707.74"/>
<polygon fill="#8c8c8c" stroke="#8c8c8c" stroke-width="1.1" points="1047.69,-710.18 1053.64,-705.75 1046.23,-705.51 1047.69,-710.18"/>
<text xml:space="preserve" text-anchor="middle" x="1015.42" y="-732.8" font-family="Arial" font-size="9.00" fill="#33475b"> Google (off)</text>
</g>
<!-- SignedIn -->
<g id="node8" class="node">
<title>SignedIn</title>
<path fill="#1f3864" stroke="#1f3864" stroke-width="1.3" d="M1199.33,-615.9C1199.33,-615.9 1020.67,-615.9 1020.67,-615.9 1014.67,-615.9 1008.67,-609.9 1008.67,-603.9 1008.67,-603.9 1008.67,-591.9 1008.67,-591.9 1008.67,-585.9 1014.67,-579.9 1020.67,-579.9 1020.67,-579.9 1199.33,-579.9 1199.33,-579.9 1205.33,-579.9 1211.33,-585.9 1211.33,-591.9 1211.33,-591.9 1211.33,-603.9 1211.33,-603.9 1211.33,-609.9 1205.33,-615.9 1199.33,-615.9"/>
<text xml:space="preserve" text-anchor="start" x="1085.25" y="-599" font-family="Arial" font-weight="bold" font-size="11.00" fill="white">Signed in</text>
<text xml:space="preserve" text-anchor="start" x="1020.19" y="-589.8" font-family="Arial" font-size="9.00" fill="white">back to the page the user wanted, else /learn</text>
</g>
<!-- Login&#45;&gt;SignedIn -->
<g id="edge9" class="edge">
<title>Login&#45;&gt;SignedIn</title>
<path fill="none" stroke="#1f3864" stroke-width="2" d="M788.6,-782.72C884.15,-780.3 1137,-767.96 1184,-704.7 1197.25,-686.86 1193.91,-674.59 1184,-654.7 1177.41,-641.48 1166.03,-630.56 1154.14,-622"/>
<polygon fill="#1f3864" stroke="#1f3864" stroke-width="2" points="1155.57,-620.01 1148.39,-618.14 1152.84,-624.08 1155.57,-620.01"/>
</g>
<!-- Register&#45;&gt;SignedIn -->
<g id="edge10" class="edge">
<title>Register&#45;&gt;SignedIn</title>
<path fill="none" stroke="#1f3864" stroke-width="2" d="M645.45,-668.07C654.21,-662.98 664.22,-657.94 674,-654.7 780.64,-619.33 908.83,-606.19 998.51,-601.4"/>
<polygon fill="#1f3864" stroke="#1f3864" stroke-width="2" points="998.54,-603.86 1005.41,-601.05 998.29,-598.96 998.54,-603.86"/>
<text xml:space="preserve" text-anchor="middle" x="755.78" y="-638.6" font-family="Arial" font-size="9.00" fill="#33475b"> auto sign&#45;in</text>
</g>
<!-- Reset -->
<g id="node6" class="node">
<title>Reset</title>
<path fill="#deebf7" stroke="#2e75b6" stroke-width="1.3" d="M1011.18,-704.7C1011.18,-704.7 908.82,-704.7 908.82,-704.7 902.82,-704.7 896.82,-698.7 896.82,-692.7 896.82,-692.7 896.82,-680.7 896.82,-680.7 896.82,-674.7 902.82,-668.7 908.82,-668.7 908.82,-668.7 1011.18,-668.7 1011.18,-668.7 1017.18,-668.7 1023.18,-674.7 1023.18,-680.7 1023.18,-680.7 1023.18,-692.7 1023.18,-692.7 1023.18,-698.7 1017.18,-704.7 1011.18,-704.7"/>
<text xml:space="preserve" text-anchor="start" x="908.34" y="-687.8" font-family="Arial" font-weight="bold" font-size="11.00" fill="#1f1f1f">2.5 Reset Password</text>
<text xml:space="preserve" text-anchor="start" x="927.99" y="-678.6" font-family="Arial" font-size="9.00" fill="#595959">/reset&#45;password</text>
</g>
<!-- Forgot&#45;&gt;Reset -->
<g id="edge6" class="edge">
<title>Forgot&#45;&gt;Reset</title>
<path fill="none" stroke="#4a6e96" stroke-width="1.1" d="M818.1,-686.7C840.25,-686.7 865.06,-686.7 887.66,-686.7"/>
<polygon fill="#4a6e96" stroke="#4a6e96" stroke-width="1.1" points="887.54,-689.15 894.54,-686.7 887.54,-684.25 887.54,-689.15"/>
<text xml:space="preserve" text-anchor="middle" x="857.22" y="-692.4" font-family="Arial" font-size="9.00" fill="#33475b"> Tôi đã có mã</text>
</g>
<!-- Reset&#45;&gt;Login -->
<g id="edge7" class="edge">
<title>Reset&#45;&gt;Login</title>
<path fill="none" stroke="#4a6e96" stroke-width="1.1" d="M921.9,-705.21C886.49,-721.49 833.74,-745.73 796.42,-762.88"/>
<polygon fill="#4a6e96" stroke="#4a6e96" stroke-width="1.1" points="795.56,-760.58 790.22,-765.73 797.6,-765.04 795.56,-760.58"/>
<text xml:space="preserve" text-anchor="middle" x="891.89" y="-732.8" font-family="Arial" font-size="9.00" fill="#33475b"> reset ok</text>
</g>
<!-- OAuth&#45;&gt;SignedIn -->
<g id="edge11" class="edge">
<title>OAuth&#45;&gt;SignedIn</title>
<path fill="none" stroke="#8c8c8c" stroke-width="1.1" stroke-dasharray="5,2" d="M1110,-668.13C1110,-655.66 1110,-638.72 1110,-624.71"/>
<polygon fill="#8c8c8c" stroke="#8c8c8c" stroke-width="1.1" points="1112.45,-625.1 1110,-618.1 1107.55,-625.1 1112.45,-625.1"/>
</g>
<!-- TopBar -->
<g id="node9" class="node">
<title>TopBar</title>
<polygon fill="#404040" stroke="#404040" stroke-width="1.3" points="1152.08,-538.9 841.92,-538.9 841.92,-502.9 1152.08,-502.9 1152.08,-538.9"/>
<text xml:space="preserve" text-anchor="start" x="942.91" y="-522" font-family="Arial" font-weight="bold" font-size="11.00" fill="white">Top bar (SiteNavbar)</text>
<text xml:space="preserve" text-anchor="start" x="853.44" y="-512.8" font-family="Arial" font-size="9.00" fill="white">Tổng quát · Lớp học · Lộ trình · Luyện đề · Học liệu · Đăng xuất</text>
</g>
<!-- SignedIn&#45;&gt;TopBar -->
<g id="edge12" class="edge">
<title>SignedIn&#45;&gt;TopBar</title>
<path fill="none" stroke="#1f3864" stroke-width="2" d="M1083.51,-579.32C1067.92,-568.97 1048.05,-555.78 1031.28,-544.65"/>
<polygon fill="#1f3864" stroke="#1f3864" stroke-width="2" points="1033.04,-542.88 1025.85,-541.05 1030.33,-546.96 1033.04,-542.88"/>
</g>
<!-- Admin -->
<g id="node29" class="node">
<title>Admin</title>
<path fill="none" stroke="#8c8c8c" stroke-width="1.3" stroke-dasharray="5,2" d="M1481.56,-415.36C1481.56,-415.36 1316.44,-415.36 1316.44,-415.36 1310.44,-415.36 1304.44,-409.36 1304.44,-403.36 1304.44,-403.36 1304.44,-391.36 1304.44,-391.36 1304.44,-385.36 1310.44,-379.36 1316.44,-379.36 1316.44,-379.36 1481.56,-379.36 1481.56,-379.36 1487.56,-379.36 1493.56,-385.36 1493.56,-391.36 1493.56,-391.36 1493.56,-403.36 1493.56,-403.36 1493.56,-409.36 1487.56,-415.36 1481.56,-415.36"/>
<text xml:space="preserve" text-anchor="start" x="1335.75" y="-398.46" font-family="Arial" font-weight="bold" font-size="11.00" fill="#404040">ADMIN · SALES_STAFF</text>
<text xml:space="preserve" text-anchor="start" x="1315.96" y="-389.26" font-family="Arial" font-size="9.00" fill="#404040">2.38–2.42 Users · Plans · Keys · Points</text>
</g>
<!-- SignedIn&#45;&gt;Admin -->
<g id="edge16" class="edge">
<title>SignedIn&#45;&gt;Admin</title>
<path fill="none" stroke="#8c8c8c" stroke-width="1.1" stroke-dasharray="5,2" d="M1135.65,-579.28C1175.34,-552.01 1253.43,-498.36 1314.32,-456.54"/>
<polygon fill="#8c8c8c" stroke="#8c8c8c" stroke-width="1.1" points="1315.52,-458.68 1319.9,-452.7 1312.75,-454.64 1315.52,-458.68"/>
<text xml:space="preserve" text-anchor="middle" x="1289.64" y="-518.2" font-family="Arial" font-size="9.00" fill="#595959"> staff role → role home</text>
</g>
<!-- Path -->
<g id="node10" class="node">
<title>Path</title>
<path fill="#deebf7" stroke="#2e75b6" stroke-width="2.2" d="M338.36,-415.36C338.36,-415.36 247.64,-415.36 247.64,-415.36 241.64,-415.36 235.64,-409.36 235.64,-403.36 235.64,-403.36 235.64,-391.36 235.64,-391.36 235.64,-385.36 241.64,-379.36 247.64,-379.36 247.64,-379.36 338.36,-379.36 338.36,-379.36 344.36,-379.36 350.36,-385.36 350.36,-391.36 350.36,-391.36 350.36,-403.36 350.36,-403.36 350.36,-409.36 344.36,-415.36 338.36,-415.36"/>
<text xml:space="preserve" text-anchor="start" x="247.16" y="-398.46" font-family="Arial" font-weight="bold" font-size="11.00" fill="#1f1f1f">2.8 Learning Path</text>
<text xml:space="preserve" text-anchor="start" x="281.74" y="-389.26" font-family="Arial" font-size="9.00" fill="#595959">/learn</text>
</g>
<!-- TopBar&#45;&gt;Path -->
<g id="edge13" class="edge">
<title>TopBar&#45;&gt;Path</title>
<path fill="none" stroke="#2e75b6" stroke-width="1.8" d="M895.01,-502.29C820.15,-489.37 714.12,-471.06 611.86,-453.41"/>
<polygon fill="#2e75b6" stroke="#2e75b6" stroke-width="1.8" points="612.29,-451 604.97,-452.22 611.46,-455.83 612.29,-451"/>
<text xml:space="preserve" text-anchor="middle" x="788.3" y="-469.4" font-family="Arial" font-size="9.00" fill="#1f4e79"> Lộ trình</text>
</g>
<!-- Overview -->
<g id="node20" class="node">
<title>Overview</title>
<path fill="#fbe5d6" stroke="#c55a11" stroke-width="2.2" d="M1012.06,-415.36C1012.06,-415.36 879.94,-415.36 879.94,-415.36 873.94,-415.36 867.94,-409.36 867.94,-403.36 867.94,-403.36 867.94,-391.36 867.94,-391.36 867.94,-385.36 873.94,-379.36 879.94,-379.36 879.94,-379.36 1012.06,-379.36 1012.06,-379.36 1018.06,-379.36 1024.06,-385.36 1024.06,-391.36 1024.06,-391.36 1024.06,-403.36 1024.06,-403.36 1024.06,-409.36 1018.06,-415.36 1012.06,-415.36"/>
<text xml:space="preserve" text-anchor="start" x="912.37" y="-398.46" font-family="Arial" font-weight="bold" font-size="11.00" fill="#1f1f1f">2.7 Overview</text>
<text xml:space="preserve" text-anchor="start" x="879.46" y="-389.26" font-family="Arial" font-size="9.00" fill="#595959">/overview · home when signed in</text>
</g>
<!-- TopBar&#45;&gt;Overview -->
<g id="edge14" class="edge">
<title>TopBar&#45;&gt;Overview</title>
<path fill="none" stroke="#c55a11" stroke-width="1.8" d="M989.69,-502.49C984.97,-491.23 978.51,-475.84 972.01,-460.35"/>
<polygon fill="#c55a11" stroke="#c55a11" stroke-width="1.8" points="974.43,-459.77 969.46,-454.27 969.91,-461.67 974.43,-459.77"/>
<text xml:space="preserve" text-anchor="middle" x="1026.78" y="-474.8" font-family="Arial" font-size="9.00" fill="#843c0c"> Tổng quát · Lớp học</text>
<text xml:space="preserve" text-anchor="middle" x="1026.78" y="-464" font-family="Arial" font-size="9.00" fill="#843c0c"> Luyện đề</text>
</g>
<!-- Account -->
<g id="node25" class="node">
<title>Account</title>
<path fill="none" stroke="#8c8c8c" stroke-width="1.3" stroke-dasharray="5,2" d="M1230.8,-416.9C1230.8,-416.9 1077.2,-416.9 1077.2,-416.9 1071.2,-416.9 1065.2,-410.9 1065.2,-404.9 1065.2,-404.9 1065.2,-389.82 1065.2,-389.82 1065.2,-383.82 1071.2,-377.82 1077.2,-377.82 1077.2,-377.82 1230.8,-377.82 1230.8,-377.82 1236.8,-377.82 1242.8,-383.82 1242.8,-389.82 1242.8,-389.82 1242.8,-404.9 1242.8,-404.9 1242.8,-410.9 1236.8,-416.9 1230.8,-416.9"/>
<text xml:space="preserve" text-anchor="start" x="1104.48" y="-402.96" font-family="Arial" font-weight="bold" font-size="11.00" fill="#404040">2.23–2.27 Account</text>
<text xml:space="preserve" text-anchor="start" x="1076.72" y="-393.76" font-family="Arial" font-size="9.00" fill="#404040">Profile · Goals · Subscription &amp; Points</text>
<text xml:space="preserve" text-anchor="start" x="1110.24" y="-384.76" font-family="Arial" font-size="9.00" fill="#404040">Activity · Notifications</text>
</g>
<!-- TopBar&#45;&gt;Account -->
<g id="edge15" class="edge">
<title>TopBar&#45;&gt;Account</title>
<path fill="none" stroke="#8c8c8c" stroke-width="1.1" stroke-dasharray="5,2" d="M1044.86,-502.38C1056.57,-497.02 1068.69,-490.49 1079,-482.9 1088.34,-476.03 1097.36,-467.82 1105.72,-459.27"/>
<polygon fill="#8c8c8c" stroke="#8c8c8c" stroke-width="1.1" points="1107.2,-461.27 1110.25,-454.5 1103.65,-457.89 1107.2,-461.27"/>
<text xml:space="preserve" text-anchor="middle" x="1132.11" y="-469.4" font-family="Arial" font-size="9.00" fill="#595959"> planned menu</text>
</g>
<!-- Topic -->
<g id="node11" class="node">
<title>Topic</title>
<path fill="#deebf7" stroke="#2e75b6" stroke-width="1.3" d="M113.86,-325.48C113.86,-325.48 34.14,-325.48 34.14,-325.48 28.14,-325.48 22.14,-319.48 22.14,-313.48 22.14,-313.48 22.14,-301.48 22.14,-301.48 22.14,-295.48 28.14,-289.48 34.14,-289.48 34.14,-289.48 113.86,-289.48 113.86,-289.48 119.86,-289.48 125.86,-295.48 125.86,-301.48 125.86,-301.48 125.86,-313.48 125.86,-313.48 125.86,-319.48 119.86,-325.48 113.86,-325.48"/>
<text xml:space="preserve" text-anchor="start" x="33.66" y="-308.58" font-family="Arial" font-weight="bold" font-size="11.00" fill="#1f1f1f">2.9 Topic Detail</text>
<text xml:space="preserve" text-anchor="start" x="43.73" y="-299.38" font-family="Arial" font-size="9.00" fill="#595959">/learn/topics/:id</text>
</g>
<!-- Path&#45;&gt;Topic -->
<g id="edge17" class="edge">
<title>Path&#45;&gt;Topic</title>
<path fill="none" stroke="#4a6e96" stroke-width="1.1" d="M234.71,-378.84C215.79,-372.71 194.81,-365.44 175.98,-357.82 155.56,-349.56 133.48,-339.08 115.12,-329.91"/>
<polygon fill="#4a6e96" stroke="#4a6e96" stroke-width="1.1" points="116.33,-327.78 108.97,-326.82 114.12,-332.15 116.33,-327.78"/>
<text xml:space="preserve" text-anchor="middle" x="198.99" y="-349.72" font-family="Arial" font-size="9.00" fill="#33475b"> chọn topic</text>
</g>
<!-- Review -->
<g id="node14" class="node">
<title>Review</title>
<path fill="#deebf7" stroke="#2e75b6" stroke-width="1.3" d="M150.33,-58C150.33,-58 43.67,-58 43.67,-58 37.67,-58 31.67,-52 31.67,-46 31.67,-46 31.67,-34 31.67,-34 31.67,-28 37.67,-22 43.67,-22 43.67,-22 150.33,-22 150.33,-22 156.33,-22 162.33,-28 162.33,-34 162.33,-34 162.33,-46 162.33,-46 162.33,-52 156.33,-58 150.33,-58"/>
<text xml:space="preserve" text-anchor="start" x="43.19" y="-41.1" font-family="Arial" font-weight="bold" font-size="11.00" fill="#1f1f1f">2.14 Review Session</text>
<text xml:space="preserve" text-anchor="start" x="63.24" y="-31.9" font-family="Arial" font-size="9.00" fill="#595959">/learn/reviews/:id</text>
</g>
<!-- Path&#45;&gt;Review -->
<g id="edge25" class="edge">
<title>Path&#45;&gt;Review</title>
<path fill="none" stroke="#4a6e96" stroke-width="1.1" stroke-dasharray="1,5" d="M271.39,-378.38C258.29,-368.15 240.9,-355.69 224,-347.02 199.36,-334.39 181.13,-349.52 165,-327.02 154.88,-312.9 153.58,-301.02 165,-287.94 186.68,-263.11 279.66,-274.34 312,-267.94 365.17,-257.42 394.55,-278.14 430,-237.14 470.9,-189.84 480.51,-144.43 440,-96.8 406.21,-57.06 261.57,-45.55 171.25,-42.26"/>
<polygon fill="#4a6e96" stroke="#4a6e96" stroke-width="1.1" points="171.43,-39.82 164.35,-42.02 171.26,-44.71 171.43,-39.82"/>
<text xml:space="preserve" text-anchor="middle" x="490.86" y="-214.9" font-family="Arial" font-size="9.00" fill="#33475b"> review banner</text>
</g>
<!-- Reviews -->
<g id="node17" class="node">
<title>Reviews</title>
<path fill="none" stroke="#8c8c8c" stroke-width="1.3" stroke-dasharray="5,2" d="M274.01,-325.48C274.01,-325.48 189.99,-325.48 189.99,-325.48 183.99,-325.48 177.99,-319.48 177.99,-313.48 177.99,-313.48 177.99,-301.48 177.99,-301.48 177.99,-295.48 183.99,-289.48 189.99,-289.48 189.99,-289.48 274.01,-289.48 274.01,-289.48 280.01,-289.48 286.01,-295.48 286.01,-301.48 286.01,-301.48 286.01,-313.48 286.01,-313.48 286.01,-319.48 280.01,-325.48 274.01,-325.48"/>
<text xml:space="preserve" text-anchor="start" x="189.51" y="-305.18" font-family="Arial" font-weight="bold" font-size="11.00" fill="#595959">2.13 Review List</text>
</g>
<!-- Path&#45;&gt;Reviews -->
<g id="edge26" class="edge">
<title>Path&#45;&gt;Reviews</title>
<path fill="none" stroke="#8c8c8c" stroke-width="1.1" stroke-dasharray="5,2" d="M280.66,-378.58C271.5,-365.39 258.91,-347.26 248.84,-332.74"/>
<polygon fill="#8c8c8c" stroke="#8c8c8c" stroke-width="1.1" points="251.07,-331.66 245.07,-327.31 247.05,-334.45 251.07,-331.66"/>
</g>
<!-- Mastery -->
<g id="node18" class="node">
<title>Mastery</title>
<path fill="none" stroke="#8c8c8c" stroke-width="1.3" stroke-dasharray="5,2" d="M388.54,-325.48C388.54,-325.48 323.46,-325.48 323.46,-325.48 317.46,-325.48 311.46,-319.48 311.46,-313.48 311.46,-313.48 311.46,-301.48 311.46,-301.48 311.46,-295.48 317.46,-289.48 323.46,-289.48 323.46,-289.48 388.54,-289.48 388.54,-289.48 394.54,-289.48 400.54,-295.48 400.54,-301.48 400.54,-301.48 400.54,-313.48 400.54,-313.48 400.54,-319.48 394.54,-325.48 388.54,-325.48"/>
<text xml:space="preserve" text-anchor="start" x="322.98" y="-305.18" font-family="Arial" font-weight="bold" font-size="11.00" fill="#595959">2.15 Mastery</text>
</g>
<!-- Path&#45;&gt;Mastery -->
<g id="edge27" class="edge">
<title>Path&#45;&gt;Mastery</title>
<path fill="none" stroke="#8c8c8c" stroke-width="1.1" stroke-dasharray="5,2" d="M305.75,-378.58C315.2,-365.39 328.2,-347.26 338.61,-332.74"/>
<polygon fill="#8c8c8c" stroke="#8c8c8c" stroke-width="1.1" points="340.43,-334.41 342.51,-327.29 336.45,-331.55 340.43,-334.41"/>
</g>
<!-- Lesson -->
<g id="node12" class="node">
<title>Lesson</title>
<path fill="#deebf7" stroke="#2e75b6" stroke-width="1.3" d="M160.17,-237.14C160.17,-237.14 33.83,-237.14 33.83,-237.14 27.83,-237.14 21.83,-231.14 21.83,-225.14 21.83,-225.14 21.83,-210.06 21.83,-210.06 21.83,-204.06 27.83,-198.06 33.83,-198.06 33.83,-198.06 160.17,-198.06 160.17,-198.06 166.17,-198.06 172.17,-204.06 172.17,-210.06 172.17,-210.06 172.17,-225.14 172.17,-225.14 172.17,-231.14 166.17,-237.14 160.17,-237.14"/>
<text xml:space="preserve" text-anchor="start" x="47.47" y="-223.2" font-family="Arial" font-weight="bold" font-size="11.00" fill="#1f1f1f">2.10 Lesson Player</text>
<text xml:space="preserve" text-anchor="start" x="63.23" y="-214" font-family="Arial" font-size="9.00" fill="#595959">/learn/lessons/:id</text>
<text xml:space="preserve" text-anchor="start" x="33.35" y="-205" font-family="Arial" font-size="9.00" fill="#595959">+ 2.11 Writing Feedback (inline)</text>
</g>
<!-- Topic&#45;&gt;Lesson -->
<g id="edge18" class="edge">
<title>Topic&#45;&gt;Lesson</title>
<path fill="none" stroke="#4a6e96" stroke-width="1.1" d="M78.54,-289.12C81.75,-276.86 86.12,-260.17 89.8,-246.11"/>
<polygon fill="#4a6e96" stroke="#4a6e96" stroke-width="1.1" points="92.16,-246.76 91.56,-239.37 87.42,-245.52 92.16,-246.76"/>
<text xml:space="preserve" text-anchor="middle" x="103.88" y="-259.84" font-family="Arial" font-size="9.00" fill="#33475b"> học bài</text>
</g>
<!-- Attempt -->
<g id="node15" class="node">
<title>Attempt</title>
<path fill="#deebf7" stroke="#2e75b6" stroke-width="1.3" d="M405.36,-235.6C405.36,-235.6 314.64,-235.6 314.64,-235.6 308.64,-235.6 302.64,-229.6 302.64,-223.6 302.64,-223.6 302.64,-211.6 302.64,-211.6 302.64,-205.6 308.64,-199.6 314.64,-199.6 314.64,-199.6 405.36,-199.6 405.36,-199.6 411.36,-199.6 417.36,-205.6 417.36,-211.6 417.36,-211.6 417.36,-223.6 417.36,-223.6 417.36,-229.6 411.36,-235.6 405.36,-235.6"/>
<text xml:space="preserve" text-anchor="start" x="314.16" y="-218.7" font-family="Arial" font-weight="bold" font-size="11.00" fill="#1f1f1f">2.16 Test Attempt</text>
<text xml:space="preserve" text-anchor="start" x="316.73" y="-209.5" font-family="Arial" font-size="9.00" fill="#595959">/learn/tests/:attemptId</text>
</g>
<!-- Topic&#45;&gt;Attempt -->
<g id="edge22" class="edge">
<title>Topic&#45;&gt;Attempt</title>
<path fill="none" stroke="#4a6e96" stroke-width="1.1" d="M126.46,-290.36C173.91,-275.78 243.96,-254.26 294.96,-238.59"/>
<polygon fill="#4a6e96" stroke="#4a6e96" stroke-width="1.1" points="295.41,-241.01 301.38,-236.61 293.97,-236.33 295.41,-241.01"/>
<text xml:space="preserve" text-anchor="middle" x="269.88" y="-259.84" font-family="Arial" font-size="9.00" fill="#33475b"> Làm bài kiểm tra</text>
</g>
<!-- Practice -->
<g id="node13" class="node">
<title>Practice</title>
<path fill="#deebf7" stroke="#2e75b6" stroke-width="1.3" d="M147.29,-146.8C147.29,-146.8 46.71,-146.8 46.71,-146.8 40.71,-146.8 34.71,-140.8 34.71,-134.8 34.71,-134.8 34.71,-122.8 34.71,-122.8 34.71,-116.8 40.71,-110.8 46.71,-110.8 46.71,-110.8 147.29,-110.8 147.29,-110.8 153.29,-110.8 159.29,-116.8 159.29,-122.8 159.29,-122.8 159.29,-134.8 159.29,-134.8 159.29,-140.8 153.29,-146.8 147.29,-146.8"/>
<text xml:space="preserve" text-anchor="start" x="53.28" y="-129.9" font-family="Arial" font-weight="bold" font-size="11.00" fill="#1f1f1f">2.12 Practice Set</text>
<text xml:space="preserve" text-anchor="start" x="46.23" y="-120.7" font-family="Arial" font-size="9.00" fill="#595959">/learn/lessons/:id/practice</text>
</g>
<!-- Lesson&#45;&gt;Practice -->
<g id="edge19" class="edge">
<title>Lesson&#45;&gt;Practice</title>
<path fill="none" stroke="#4a6e96" stroke-width="1.1" d="M97,-197.77C97,-185.5 97,-169.32 97,-155.83"/>
<polygon fill="#4a6e96" stroke="#4a6e96" stroke-width="1.1" points="99.45,-156.08 97,-149.08 94.55,-156.08 99.45,-156.08"/>
<text xml:space="preserve" text-anchor="middle" x="123.01" y="-169.5" font-family="Arial" font-size="9.00" fill="#33475b"> Luyện thêm</text>
</g>
<!-- Practice&#45;&gt;Review -->
<g id="edge20" class="edge">
<title>Practice&#45;&gt;Review</title>
<path fill="none" stroke="#4a6e96" stroke-width="1.1" d="M97,-110.23C97,-97.76 97,-80.82 97,-66.81"/>
<polygon fill="#4a6e96" stroke="#4a6e96" stroke-width="1.1" points="99.45,-67.2 97,-60.2 94.55,-67.2 99.45,-67.2"/>
<text xml:space="preserve" text-anchor="middle" x="129.64" y="-80.7" font-family="Arial" font-size="9.00" fill="#33475b"> &lt; 70% → bài ôn</text>
</g>
<!-- Review&#45;&gt;Lesson -->
<g id="edge21" class="edge">
<title>Review&#45;&gt;Lesson</title>
<path fill="none" stroke="#4a6e96" stroke-width="1.1" d="M144.92,-58.52C153.68,-63.62 161.94,-70.03 168,-78 186.54,-102.38 179.64,-117.14 172,-146.8 168.1,-161.94 165.56,-166.07 155,-177.6 150.11,-182.94 144.35,-187.91 138.39,-192.39"/>
<polygon fill="#4a6e96" stroke="#4a6e96" stroke-width="1.1" points="136.97,-190.39 132.7,-196.45 139.82,-194.38 136.97,-190.39"/>
<text xml:space="preserve" text-anchor="middle" x="200.1" y="-126.1" font-family="Arial" font-size="9.00" fill="#33475b"> Học tiếp</text>
</g>
<!-- Result -->
<g id="node16" class="node">
<title>Result</title>
<path fill="#deebf7" stroke="#2e75b6" stroke-width="1.3" d="M415.04,-146.8C415.04,-146.8 304.96,-146.8 304.96,-146.8 298.96,-146.8 292.96,-140.8 292.96,-134.8 292.96,-134.8 292.96,-122.8 292.96,-122.8 292.96,-116.8 298.96,-110.8 304.96,-110.8 304.96,-110.8 415.04,-110.8 415.04,-110.8 421.04,-110.8 427.04,-116.8 427.04,-122.8 427.04,-122.8 427.04,-134.8 427.04,-134.8 427.04,-140.8 421.04,-146.8 415.04,-146.8"/>
<text xml:space="preserve" text-anchor="start" x="318.12" y="-129.9" font-family="Arial" font-weight="bold" font-size="11.00" fill="#1f1f1f">2.17 Test Result</text>
<text xml:space="preserve" text-anchor="start" x="304.48" y="-120.7" font-family="Arial" font-size="9.00" fill="#595959">/learn/tests/:attemptId/result</text>
</g>
<!-- Attempt&#45;&gt;Result -->
<g id="edge23" class="edge">
<title>Attempt&#45;&gt;Result</title>
<path fill="none" stroke="#4a6e96" stroke-width="1.1" d="M360,-199.03C360,-186.56 360,-169.62 360,-155.61"/>
<polygon fill="#4a6e96" stroke="#4a6e96" stroke-width="1.1" points="362.45,-156 360,-149 357.55,-156 362.45,-156"/>
<text xml:space="preserve" text-anchor="middle" x="378.01" y="-169.5" font-family="Arial" font-size="9.00" fill="#33475b"> Nộp bài</text>
</g>
<!-- Result&#45;&gt;Path -->
<g id="edge24" class="edge">
<title>Result&#45;&gt;Path</title>
<path fill="none" stroke="#4a6e96" stroke-width="1.1" d="M427.49,-137.91C484.73,-146.35 560.43,-161.71 579,-185.6 593.06,-203.69 592.13,-218.37 579,-237.14 541.31,-291.04 492.03,-247.7 440,-287.94 423.3,-300.86 428.52,-312.71 413,-327.02 392.11,-346.29 364.94,-362.55 341.74,-374.46"/>
<polygon fill="#4a6e96" stroke="#4a6e96" stroke-width="1.1" points="340.68,-372.25 335.53,-377.59 342.88,-376.63 340.68,-372.25"/>
<text xml:space="preserve" text-anchor="middle" x="585.96" y="-259.84" font-family="Arial" font-size="9.00" fill="#33475b"> Xem lộ trình</text>
</g>
<!-- Mock -->
<g id="node19" class="node">
<title>Mock</title>
<path fill="none" stroke="#8c8c8c" stroke-width="1.3" stroke-dasharray="5,2" d="M617.25,-325.48C617.25,-325.48 464.75,-325.48 464.75,-325.48 458.75,-325.48 452.75,-319.48 452.75,-313.48 452.75,-313.48 452.75,-301.48 452.75,-301.48 452.75,-295.48 458.75,-289.48 464.75,-289.48 464.75,-289.48 617.25,-289.48 617.25,-289.48 623.25,-289.48 629.25,-295.48 629.25,-301.48 629.25,-301.48 629.25,-313.48 629.25,-313.48 629.25,-319.48 623.25,-325.48 617.25,-325.48"/>
<text xml:space="preserve" text-anchor="start" x="464.27" y="-305.18" font-family="Arial" font-weight="bold" font-size="11.00" fill="#595959">2.18 Mock &amp; Placement Tests</text>
</g>
<!-- Mock&#45;&gt;Attempt -->
<g id="edge28" class="edge">
<title>Mock&#45;&gt;Attempt</title>
<path fill="none" stroke="#8c8c8c" stroke-width="1.1" stroke-dasharray="5,2" d="M504.81,-288.91C475.7,-274.78 434.71,-254.88 403.77,-239.85"/>
<polygon fill="#8c8c8c" stroke="#8c8c8c" stroke-width="1.1" points="405,-237.72 397.63,-236.87 402.85,-242.13 405,-237.72"/>
</g>
<!-- Catalog -->
<g id="node21" class="node">
<title>Catalog</title>
<path fill="#fbe5d6" stroke="#c55a11" stroke-width="1.3" d="M850.69,-325.48C850.69,-325.48 715.31,-325.48 715.31,-325.48 709.31,-325.48 703.31,-319.48 703.31,-313.48 703.31,-313.48 703.31,-301.48 703.31,-301.48 703.31,-295.48 709.31,-289.48 715.31,-289.48 715.31,-289.48 850.69,-289.48 850.69,-289.48 856.69,-289.48 862.69,-295.48 862.69,-301.48 862.69,-301.48 862.69,-313.48 862.69,-313.48 862.69,-319.48 856.69,-325.48 850.69,-325.48"/>
<text xml:space="preserve" text-anchor="start" x="714.83" y="-308.58" font-family="Arial" font-weight="bold" font-size="11.00" fill="#1f1f1f">2.19 Practice Test Catalog</text>
<text xml:space="preserve" text-anchor="start" x="754.99" y="-299.38" font-family="Arial" font-size="9.00" fill="#595959">/practice&#45;tests</text>
</g>
<!-- Overview&#45;&gt;Catalog -->
<!-- Classroom -->
<g id="node23" class="node">
<title>Classroom</title>
<path fill="#fbe5d6" stroke="#c55a11" stroke-width="1.3" d="M989.18,-325.48C989.18,-325.48 908.82,-325.48 908.82,-325.48 902.82,-325.48 896.82,-319.48 896.82,-313.48 896.82,-313.48 896.82,-301.48 896.82,-301.48 896.82,-295.48 902.82,-289.48 908.82,-289.48 908.82,-289.48 989.18,-289.48 989.18,-289.48 995.18,-289.48 1001.18,-295.48 1001.18,-301.48 1001.18,-301.48 1001.18,-313.48 1001.18,-313.48 1001.18,-319.48 995.18,-325.48 989.18,-325.48"/>
<text xml:space="preserve" text-anchor="start" x="908.34" y="-308.58" font-family="Arial" font-weight="bold" font-size="11.00" fill="#1f1f1f">2.21 Classroom</text>
<text xml:space="preserve" text-anchor="start" x="927.24" y="-299.38" font-family="Arial" font-size="9.00" fill="#595959">/classroom</text>
</g>
<!-- Overview&#45;&gt;Classroom -->
<!-- Workspace -->
<g id="node22" class="node">
<title>Workspace</title>
<path fill="#fbe5d6" stroke="#c55a11" stroke-width="1.3" d="M841.06,-235.6C841.06,-235.6 676.94,-235.6 676.94,-235.6 670.94,-235.6 664.94,-229.6 664.94,-223.6 664.94,-223.6 664.94,-211.6 664.94,-211.6 664.94,-205.6 670.94,-199.6 676.94,-199.6 676.94,-199.6 841.06,-199.6 841.06,-199.6 847.06,-199.6 853.06,-205.6 853.06,-211.6 853.06,-211.6 853.06,-223.6 853.06,-223.6 853.06,-229.6 847.06,-235.6 841.06,-235.6"/>
<text xml:space="preserve" text-anchor="start" x="691.43" y="-218.7" font-family="Arial" font-weight="bold" font-size="11.00" fill="#1f1f1f">2.20 Practice Workspaces</text>
<text xml:space="preserve" text-anchor="start" x="676.46" y="-209.5" font-family="Arial" font-size="9.00" fill="#595959">Reading · Listening · Writing · Speaking</text>
</g>
<!-- Catalog&#45;&gt;Workspace -->
<g id="edge30" class="edge">
<title>Catalog&#45;&gt;Workspace</title>
<path fill="none" stroke="#4a6e96" stroke-width="1.1" d="M778.26,-289.12C774.76,-276.32 769.95,-258.71 766.02,-244.29"/>
<polygon fill="#4a6e96" stroke="#4a6e96" stroke-width="1.1" points="768.46,-243.94 764.25,-237.83 763.73,-245.23 768.46,-243.94"/>
<text xml:space="preserve" text-anchor="middle" x="814.71" y="-259.84" font-family="Arial" font-size="9.00" fill="#33475b"> Luyện tập / Thi thử</text>
</g>
<!-- ClassLesson -->
<g id="node24" class="node">
<title>ClassLesson</title>
<path fill="#fbe5d6" stroke="#c55a11" stroke-width="1.3" d="M1011.96,-235.6C1011.96,-235.6 890.04,-235.6 890.04,-235.6 884.04,-235.6 878.04,-229.6 878.04,-223.6 878.04,-223.6 878.04,-211.6 878.04,-211.6 878.04,-205.6 884.04,-199.6 890.04,-199.6 890.04,-199.6 1011.96,-199.6 1011.96,-199.6 1017.96,-199.6 1023.96,-205.6 1023.96,-211.6 1023.96,-211.6 1023.96,-223.6 1023.96,-223.6 1023.96,-229.6 1017.96,-235.6 1011.96,-235.6"/>
<text xml:space="preserve" text-anchor="start" x="889.56" y="-218.7" font-family="Arial" font-weight="bold" font-size="11.00" fill="#1f1f1f">2.22 Classroom Lesson</text>
<text xml:space="preserve" text-anchor="start" x="915.23" y="-209.5" font-family="Arial" font-size="9.00" fill="#595959">/lessons/:lessonId</text>
</g>
<!-- Classroom&#45;&gt;ClassLesson -->
<g id="edge31" class="edge">
<title>Classroom&#45;&gt;ClassLesson</title>
<path fill="none" stroke="#4a6e96" stroke-width="1.1" d="M949.4,-289.12C949.68,-276.44 950.08,-259.04 950.41,-244.69"/>
<polygon fill="#4a6e96" stroke="#4a6e96" stroke-width="1.1" points="952.85,-244.95 950.56,-237.89 947.95,-244.83 952.85,-244.95"/>
</g>
<!-- Library -->
<g id="node26" class="node">
<title>Library</title>
<path fill="none" stroke="#8c8c8c" stroke-width="1.3" stroke-dasharray="5,2" d="M1247.56,-325.48C1247.56,-325.48 1072.44,-325.48 1072.44,-325.48 1066.44,-325.48 1060.44,-319.48 1060.44,-313.48 1060.44,-313.48 1060.44,-301.48 1060.44,-301.48 1060.44,-295.48 1066.44,-289.48 1072.44,-289.48 1072.44,-289.48 1247.56,-289.48 1247.56,-289.48 1253.56,-289.48 1259.56,-295.48 1259.56,-301.48 1259.56,-301.48 1259.56,-313.48 1259.56,-313.48 1259.56,-319.48 1253.56,-325.48 1247.56,-325.48"/>
<text xml:space="preserve" text-anchor="start" x="1113.83" y="-308.58" font-family="Arial" font-weight="bold" font-size="11.00" fill="#404040">2.29–2.32 Library</text>
<text xml:space="preserve" text-anchor="start" x="1071.96" y="-299.38" font-family="Arial" font-size="9.00" fill="#404040">Videos · Video Player · Notes · Flashcards</text>
</g>
<!-- Account&#45;&gt;Library -->
<!-- Games -->
<g id="node27" class="node">
<title>Games</title>
<path fill="none" stroke="#8c8c8c" stroke-width="1.3" stroke-dasharray="5,2" d="M1233.55,-235.6C1233.55,-235.6 1086.45,-235.6 1086.45,-235.6 1080.45,-235.6 1074.45,-229.6 1074.45,-223.6 1074.45,-223.6 1074.45,-211.6 1074.45,-211.6 1074.45,-205.6 1080.45,-199.6 1086.45,-199.6 1086.45,-199.6 1233.55,-199.6 1233.55,-199.6 1239.55,-199.6 1245.55,-205.6 1245.55,-211.6 1245.55,-211.6 1245.55,-223.6 1245.55,-223.6 1245.55,-229.6 1239.55,-235.6 1233.55,-235.6"/>
<text xml:space="preserve" text-anchor="start" x="1114.13" y="-218.7" font-family="Arial" font-weight="bold" font-size="11.00" fill="#404040">2.33–2.35 Games</text>
<text xml:space="preserve" text-anchor="start" x="1085.97" y="-209.5" font-family="Arial" font-size="9.00" fill="#404040">Lobby · Single&#45;player · Game Room</text>
</g>
<!-- Library&#45;&gt;Games -->
<!-- Community -->
<g id="node28" class="node">
<title>Community</title>
<path fill="none" stroke="#8c8c8c" stroke-width="1.3" stroke-dasharray="5,2" d="M1217.29,-146.8C1217.29,-146.8 1102.71,-146.8 1102.71,-146.8 1096.71,-146.8 1090.71,-140.8 1090.71,-134.8 1090.71,-134.8 1090.71,-122.8 1090.71,-122.8 1090.71,-116.8 1096.71,-110.8 1102.71,-110.8 1102.71,-110.8 1217.29,-110.8 1217.29,-110.8 1223.29,-110.8 1229.29,-116.8 1229.29,-122.8 1229.29,-122.8 1229.29,-134.8 1229.29,-134.8 1229.29,-140.8 1223.29,-146.8 1217.29,-146.8"/>
<text xml:space="preserve" text-anchor="start" x="1102.23" y="-129.9" font-family="Arial" font-weight="bold" font-size="11.00" fill="#404040">2.36–2.37 Community</text>
<text xml:space="preserve" text-anchor="start" x="1122.98" y="-120.7" font-family="Arial" font-size="9.00" fill="#404040">Feed · Post Detail</text>
</g>
<!-- Games&#45;&gt;Community -->
<!-- Author -->
<g id="node30" class="node">
<title>Author</title>
<path fill="none" stroke="#8c8c8c" stroke-width="1.3" stroke-dasharray="5,2" d="M1485.32,-327.02C1485.32,-327.02 1314.68,-327.02 1314.68,-327.02 1308.68,-327.02 1302.68,-321.02 1302.68,-315.02 1302.68,-315.02 1302.68,-299.94 1302.68,-299.94 1302.68,-293.94 1308.68,-287.94 1314.68,-287.94 1314.68,-287.94 1485.32,-287.94 1485.32,-287.94 1491.32,-287.94 1497.32,-293.94 1497.32,-299.94 1497.32,-299.94 1497.32,-315.02 1497.32,-315.02 1497.32,-321.02 1491.32,-327.02 1485.32,-327.02"/>
<text xml:space="preserve" text-anchor="start" x="1346.83" y="-313.08" font-family="Arial" font-weight="bold" font-size="11.00" fill="#404040">CONTENT_AUTHOR</text>
<text xml:space="preserve" text-anchor="start" x="1314.2" y="-303.88" font-family="Arial" font-size="9.00" fill="#404040">2.43–2.49 Topics · Questions · Packages</text>
<text xml:space="preserve" text-anchor="start" x="1318.46" y="-294.88" font-family="Arial" font-size="9.00" fill="#404040">Assets · Lessons · Vocabulary · Videos</text>
</g>
<!-- Admin&#45;&gt;Author -->
<!-- Examiner -->
<g id="node31" class="node">
<title>Examiner</title>
<path fill="none" stroke="#8c8c8c" stroke-width="1.3" stroke-dasharray="5,2" d="M1449.29,-235.6C1449.29,-235.6 1350.71,-235.6 1350.71,-235.6 1344.71,-235.6 1338.71,-229.6 1338.71,-223.6 1338.71,-223.6 1338.71,-211.6 1338.71,-211.6 1338.71,-205.6 1344.71,-199.6 1350.71,-199.6 1350.71,-199.6 1449.29,-199.6 1449.29,-199.6 1455.29,-199.6 1461.29,-205.6 1461.29,-211.6 1461.29,-211.6 1461.29,-223.6 1461.29,-223.6 1461.29,-229.6 1455.29,-235.6 1449.29,-235.6"/>
<text xml:space="preserve" text-anchor="start" x="1370.97" y="-218.7" font-family="Arial" font-weight="bold" font-size="11.00" fill="#404040">EXAMINER</text>
<text xml:space="preserve" text-anchor="start" x="1350.23" y="-209.5" font-family="Arial" font-size="9.00" fill="#404040">2.50 Grading Workspace</text>
</g>
<!-- Author&#45;&gt;Examiner -->
<!-- Legend -->
<g id="node32" class="node">
<title>Legend</title>
<polygon fill="white" stroke="none" points="656.5,-23.4 656.5,-56.6 1399.5,-56.6 1399.5,-23.4 656.5,-23.4"/>
<polygon fill="none" stroke="#bfbfbf" points="656.5,-23.4 656.5,-56.6 1399.5,-56.6 1399.5,-23.4 656.5,-23.4"/>
<text xml:space="preserve" text-anchor="start" x="665.5" y="-37.7" font-family="Arial" font-weight="bold" font-size="11.00" fill="#1f1f1f">Legend</text>
<polygon fill="#deebf7" stroke="none" points="712.61,-27.4 712.61,-52.6 738.61,-52.6 738.61,-27.4 712.61,-27.4"/>
<polygon fill="none" stroke="#2e75b6" points="712.61,-27.4 712.61,-52.6 738.61,-52.6 738.61,-27.4 712.61,-27.4"/>
<text xml:space="preserve" text-anchor="start" x="724.09" y="-35.6" font-family="Arial" font-size="11.00" fill="#1f1f1f"> </text>
<text xml:space="preserve" text-anchor="start" x="746.61" y="-36" font-family="Arial" font-size="10.00" fill="#1f1f1f">Built — real API</text>
<polygon fill="#fbe5d6" stroke="none" points="823.53,-27.4 823.53,-52.6 849.53,-52.6 849.53,-27.4 823.53,-27.4"/>
<polygon fill="none" stroke="#c55a11" points="823.53,-27.4 823.53,-52.6 849.53,-52.6 849.53,-27.4 823.53,-27.4"/>
<text xml:space="preserve" text-anchor="start" x="835" y="-35.6" font-family="Arial" font-size="11.00" fill="#1f1f1f"> </text>
<text xml:space="preserve" text-anchor="start" x="857.53" y="-36" font-family="Arial" font-size="10.00" fill="#1f1f1f">Built — mock data</text>
<polygon fill="none" stroke="#8c8c8c" stroke-dasharray="5,2" points="945.01,-27.4 945.01,-52.6 971.01,-52.6 971.01,-27.4 945.01,-27.4"/>
<text xml:space="preserve" text-anchor="start" x="956.48" y="-35.6" font-family="Arial" font-size="11.00" fill="#1f1f1f"> </text>
<text xml:space="preserve" text-anchor="start" x="979.01" y="-36" font-family="Arial" font-size="10.00" fill="#1f1f1f">Not built — design target</text>
<polygon fill="#1f3864" stroke="none" stroke-dasharray="5,2" points="1095.4,-27.4 1095.4,-52.6 1121.4,-52.6 1121.4,-27.4 1095.4,-27.4"/>
<text xml:space="preserve" text-anchor="start" x="1106.87" y="-35.6" font-family="Arial" font-size="11.00" fill="#1f1f1f"> </text>
<text xml:space="preserve" text-anchor="start" x="1129.4" y="-36" font-family="Arial" font-size="10.00" fill="#1f1f1f">Shared step</text>
<text xml:space="preserve" text-anchor="start" x="1196.33" y="-35.6" font-family="Arial" font-size="11.00" fill="#4a6e96">──▶</text>
<text xml:space="preserve" text-anchor="start" x="1236.83" y="-36" font-family="Arial" font-size="10.00" fill="#1f1f1f">User action</text>
<text xml:space="preserve" text-anchor="start" x="1300.41" y="-35.6" font-family="Arial" font-size="11.00" fill="#8c8c8c">&#45; &#45; ▶</text>
<text xml:space="preserve" text-anchor="start" x="1336.02" y="-36" font-family="Arial" font-size="10.00" fill="#1f1f1f">Planned link</text>
</g>
</g>
</svg>
