<?xml version="1.0" encoding="UTF-8" standalone="no"?>
<!DOCTYPE svg PUBLIC "-//W3C//DTD SVG 1.1//EN"
 "http://www.w3.org/Graphics/SVG/1.1/DTD/svg11.dtd">
<!-- Generated by graphviz version 14.1.3 (20260303.0454)
 -->
<!-- Title: G Pages: 1 -->
<svg width="397pt" height="613pt"
 viewBox="0.00 0.00 397.00 613.00" xmlns="http://www.w3.org/2000/svg" xmlns:xlink="http://www.w3.org/1999/xlink">
<g id="graph0" class="graph" transform="scale(1 1) rotate(0) translate(12.96 599.76)">
<title>G</title>
<polygon fill="white" stroke="none" points="-12.96,12.96 -12.96,-599.76 384.44,-599.76 384.44,12.96 -12.96,12.96"/>
<!-- content.topics&#45;&gt;content.topics -->
<g id="0" class="edge">
<title>content.topics&#45;&gt;content.topics</title>
<path fill="none" stroke="#405369" stroke-width="1.2" d="M131,-555.07C143.42,-553.33 152.06,-548.97 152.06,-542 152.06,-535.93 145.52,-531.85 135.64,-529.74"/>
<polygon fill="#405369" stroke="#405369" stroke-width="1.2" points="120.88,-559.84 120.28,-551.86 121.87,-551.74 122.47,-559.72 120.88,-559.84"/>
<polyline fill="none" stroke="#405369" stroke-width="1.2" points="119.78,-555.91 123.77,-555.61"/>
<ellipse fill="none" stroke="#405369" stroke-width="1.2" cx="127.56" cy="-555.32" rx="3.2" ry="3.2"/>
<polygon fill="#405369" stroke="#405369" stroke-width="1.2" points="128.14,-528.96 120.55,-524.55 123.76,-528.51 120.58,-528.17 120.58,-528.17 120.58,-528.17 123.76,-528.51 119.8,-531.71 128.14,-528.96"/>
<ellipse fill="none" stroke="#405369" stroke-width="1.2" cx="133.37" cy="-529.51" rx="3.2" ry="3.2"/>
</g>
<!-- content.topics&#45;&gt;content.knowledge_points -->
<g id="1" class="edge">
<title>content.topics&#45;&gt;content.knowledge_points</title>
<path fill="none" stroke="#405369" stroke-width="1.2" d="M63.78,-489.49C67.93,-432.5 74.03,-348.6 74.03,-348.6 74.03,-348.6 98.6,-193.62 112.58,-105.41"/>
<polygon fill="#405369" stroke="#405369" stroke-width="1.2" points="67.26,-496.83 59.28,-496.25 59.39,-494.66 67.37,-495.24 67.26,-496.83"/>
<polyline fill="none" stroke="#405369" stroke-width="1.2" points="63.21,-497.34 63.5,-493.35"/>
<polygon fill="#405369" stroke="#405369" stroke-width="1.2" points="67.55,-492.84 59.57,-492.26 59.68,-490.67 67.66,-491.25 67.55,-492.84"/>
<polyline fill="none" stroke="#405369" stroke-width="1.2" points="63.5,-493.35 63.79,-489.36"/>
<polygon fill="#405369" stroke="#405369" stroke-width="1.2" points="113.79,-97.8 118.6,-90.47 114.48,-93.46 114.98,-90.3 114.98,-90.3 114.98,-90.3 114.48,-93.46 111.48,-89.34 113.79,-97.8"/>
<ellipse fill="none" stroke="#405369" stroke-width="1.2" cx="112.96" cy="-103" rx="3.2" ry="3.2"/>
</g>
<!-- content.topics&#45;&gt;content.lessons -->
<g id="2" class="edge">
<title>content.topics&#45;&gt;content.lessons</title>
<path fill="none" stroke="#405369" stroke-width="1.2" d="M84.26,-490.25C90.09,-478.04 96.37,-464.9 102.34,-452.39"/>
<polygon fill="#405369" stroke="#405369" stroke-width="1.2" points="84.8,-498.41 77.58,-494.97 78.27,-493.52 85.49,-496.97 84.8,-498.41"/>
<polyline fill="none" stroke="#405369" stroke-width="1.2" points="80.84,-497.41 82.57,-493.8"/>
<polygon fill="#405369" stroke="#405369" stroke-width="1.2" points="86.52,-494.8 79.3,-491.36 79.99,-489.91 87.21,-493.36 86.52,-494.8"/>
<polyline fill="none" stroke="#405369" stroke-width="1.2" points="82.57,-493.8 84.29,-490.19"/>
<polygon fill="#405369" stroke="#405369" stroke-width="1.2" points="105.56,-445.65 112.25,-439.99 107.45,-441.68 108.83,-438.8 108.83,-438.8 108.83,-438.8 107.45,-441.68 105.76,-436.88 105.56,-445.65"/>
<ellipse fill="none" stroke="#405369" stroke-width="1.2" cx="103.29" cy="-450.4" rx="3.2" ry="3.2"/>
</g>
<!-- content.lessons&#45;&gt;content.knowledge_points -->
<g id="5" class="edge">
<title>content.lessons&#45;&gt;content.knowledge_points</title>
<path fill="none" stroke="#405369" stroke-width="1.2" d="M128.66,-333.1C127.19,-269.44 124.87,-168.88 123.4,-105.19"/>
<polygon fill="#405369" stroke="#405369" stroke-width="1.2" points="128.83,-340.45 125.42,-348.54 128.93,-344.85 129.01,-348.05 129.01,-348.05 129.01,-348.05 128.93,-344.85 132.62,-348.37 128.83,-340.45"/>
<ellipse fill="none" stroke="#405369" stroke-width="1.2" cx="128.71" cy="-335.19" rx="3.2" ry="3.2"/>
<polygon fill="#405369" stroke="#405369" stroke-width="1.2" points="123.23,-97.84 126.65,-89.76 123.13,-93.44 123.06,-90.24 123.06,-90.24 123.06,-90.24 123.13,-93.44 119.45,-89.93 123.23,-97.84"/>
<ellipse fill="none" stroke="#405369" stroke-width="1.2" cx="123.35" cy="-103.1" rx="3.2" ry="3.2"/>
<text xml:space="preserve" text-anchor="middle" x="182.14" y="-233.6" font-family="Arial" font-size="10.00">lesson knowledge points</text>
<text xml:space="preserve" text-anchor="middle" x="182.14" y="-221.6" font-family="Arial" font-size="10.00">(association)</text>
</g>
<!-- content.lessons&#45;&gt;content.lesson_blocks -->
<g id="3" class="edge">
<title>content.lessons&#45;&gt;content.lesson_blocks</title>
<path fill="none" stroke="#405369" stroke-width="1.2" d="M175.32,-353.25C197.93,-333.7 225.7,-309.69 250.58,-288.18"/>
<polygon fill="#405369" stroke="#405369" stroke-width="1.2" points="172.7,-360.8 167.47,-354.75 168.68,-353.7 173.91,-359.75 172.7,-360.8"/>
<polyline fill="none" stroke="#405369" stroke-width="1.2" points="169.48,-358.3 172.5,-355.68"/>
<polygon fill="#405369" stroke="#405369" stroke-width="1.2" points="175.72,-358.19 170.49,-352.13 171.7,-351.09 176.93,-357.14 175.72,-358.19"/>
<polyline fill="none" stroke="#405369" stroke-width="1.2" points="172.5,-355.68 175.53,-353.07"/>
<polygon fill="#405369" stroke="#405369" stroke-width="1.2" points="256.17,-283.35 264.58,-280.84 259.5,-280.47 261.92,-278.38 261.92,-278.38 261.92,-278.38 259.5,-280.47 259.87,-275.39 256.17,-283.35"/>
<ellipse fill="none" stroke="#405369" stroke-width="1.2" cx="252.19" cy="-286.79" rx="3.2" ry="3.2"/>
</g>
<!-- content.lesson_blocks&#45;&gt;content.knowledge_points -->
<g id="6" class="edge">
<title>content.lesson_blocks&#45;&gt;content.knowledge_points</title>
<path fill="none" stroke="#405369" stroke-width="1.2" d="M251.37,-168.33C228.19,-146.38 202.24,-121.79 179.7,-100.44"/>
<polygon fill="#405369" stroke="#405369" stroke-width="1.2" points="256.66,-173.35 260,-181.47 259.86,-176.38 262.18,-178.58 262.18,-178.58 262.18,-178.58 259.86,-176.38 264.95,-176.24 256.66,-173.35"/>
<ellipse fill="none" stroke="#405369" stroke-width="1.2" cx="252.84" cy="-169.74" rx="3.2" ry="3.2"/>
<polygon fill="#405369" stroke="#405369" stroke-width="1.2" points="174.36,-95.37 171.02,-87.26 171.16,-92.35 168.84,-90.15 168.84,-90.15 168.84,-90.15 171.16,-92.35 166.07,-92.48 174.36,-95.37"/>
<ellipse fill="none" stroke="#405369" stroke-width="1.2" cx="178.18" cy="-98.99" rx="3.2" ry="3.2"/>
<text xml:space="preserve" text-anchor="middle" x="286.57" y="-133.6" font-family="Arial" font-size="10.00">lesson block knowledge points</text>
<text xml:space="preserve" text-anchor="middle" x="286.57" y="-121.6" font-family="Arial" font-size="10.00">(association)</text>
</g>
<!-- content.content_assets&#45;&gt;content.lesson_blocks -->
<g id="4" class="edge">
<title>content.content_assets&#45;&gt;content.lesson_blocks</title>
<path fill="none" stroke="#405369" stroke-width="1.2" d="M316.03,-351.46C316.03,-337.37 316.03,-321.13 316.03,-305.24"/>
<polygon fill="#405369" stroke="#405369" stroke-width="1.2" points="320.03,-362.11 312.03,-362.11 312.03,-360.51 320.03,-360.51 320.03,-362.11"/>
<polyline fill="none" stroke="#405369" stroke-width="1.2" points="316.03,-362.91 316.03,-358.91"/>
<ellipse fill="none" stroke="#405369" stroke-width="1.2" cx="316.03" cy="-355.11" rx="3.2" ry="3.2"/>
<polygon fill="#405369" stroke="#405369" stroke-width="1.2" points="316.03,-297.96 319.63,-289.96 316.03,-293.56 316.03,-290.36 316.03,-290.36 316.03,-290.36 316.03,-293.56 312.43,-289.96 316.03,-297.96"/>
<ellipse fill="none" stroke="#405369" stroke-width="1.2" cx="316.03" cy="-303.22" rx="3.2" ry="3.2"/>
</g>
<!-- content.topics -->
<g id="node1" class="node">
<title>content.topics</title>
<polygon fill="#ffffff" stroke="none" points="0,-497.2 0,-586.8 120.06,-586.8 120.06,-497.2 0,-497.2"/>
<polygon fill="#dbe7f3" stroke="none" points="1,-555 1,-585.8 119.06,-585.8 119.06,-555 1,-555"/>
<text xml:space="preserve" text-anchor="start" x="41.37" y="-567.2" font-family="Arial" font-weight="bold" font-size="14.00">Topic</text>
<text xml:space="preserve" text-anchor="start" x="8" y="-536" font-family="Arial" font-size="12.00">PK &#160;id</text>
<text xml:space="preserve" text-anchor="start" x="8" y="-507.6" font-family="Arial" font-size="12.00">FK &#160;parent_topic_id</text>
<polygon fill="none" stroke="#52667a" points="0,-497.2 0,-586.8 120.06,-586.8 120.06,-497.2 0,-497.2"/>
</g>
<!-- content.knowledge_points -->
<g id="node2" class="node">
<title>content.knowledge_points</title>
<polygon fill="#ffffff" stroke="none" points="57.26,0 57.26,-89.6 186.81,-89.6 186.81,0 57.26,0"/>
<polygon fill="#dbe7f3" stroke="none" points="58.26,-57.8 58.26,-88.6 185.81,-88.6 185.81,-57.8 58.26,-57.8"/>
<text xml:space="preserve" text-anchor="start" x="65.26" y="-70" font-family="Arial" font-weight="bold" font-size="14.00">Knowledge Point</text>
<text xml:space="preserve" text-anchor="start" x="65.26" y="-38.8" font-family="Arial" font-size="12.00">PK &#160;id</text>
<text xml:space="preserve" text-anchor="start" x="65.26" y="-10.4" font-family="Arial" font-size="12.00">FK &#160;topic_id</text>
<polygon fill="none" stroke="#52667a" points="57.26,0 57.26,-89.6 186.81,-89.6 186.81,0 57.26,0"/>
</g>
<!-- content.lessons -->
<g id="node3" class="node">
<title>content.lessons</title>
<polygon fill="#ffffff" stroke="none" points="90.35,-348.6 90.35,-438.2 169.71,-438.2 169.71,-348.6 90.35,-348.6"/>
<polygon fill="#dbe7f3" stroke="none" points="91.35,-406.4 91.35,-437.2 168.71,-437.2 168.71,-406.4 91.35,-406.4"/>
<text xml:space="preserve" text-anchor="start" x="105.52" y="-418.6" font-family="Arial" font-weight="bold" font-size="14.00">Lesson</text>
<text xml:space="preserve" text-anchor="start" x="98.35" y="-387.4" font-family="Arial" font-size="12.00">PK &#160;id</text>
<text xml:space="preserve" text-anchor="start" x="98.35" y="-359" font-family="Arial" font-size="12.00">FK &#160;topic_id</text>
<polygon fill="none" stroke="#52667a" points="90.35,-348.6 90.35,-438.2 169.71,-438.2 169.71,-348.6 90.35,-348.6"/>
</g>
<!-- content.lesson_blocks -->
<g id="node4" class="node">
<title>content.lesson_blocks</title>
<polygon fill="#ffffff" stroke="none" points="262.52,-171.6 262.52,-289.6 369.54,-289.6 369.54,-171.6 262.52,-171.6"/>
<polygon fill="#dbe7f3" stroke="none" points="263.52,-257.8 263.52,-288.6 368.54,-288.6 368.54,-257.8 263.52,-257.8"/>
<text xml:space="preserve" text-anchor="start" x="270.52" y="-270" font-family="Arial" font-weight="bold" font-size="14.00">Lesson Block</text>
<text xml:space="preserve" text-anchor="start" x="270.52" y="-238.8" font-family="Arial" font-size="12.00">PK &#160;id</text>
<text xml:space="preserve" text-anchor="start" x="270.52" y="-210.4" font-family="Arial" font-size="12.00">FK &#160;lesson_id</text>
<text xml:space="preserve" text-anchor="start" x="270.52" y="-182" font-family="Arial" font-size="12.00">FK &#160;asset_id</text>
<polygon fill="none" stroke="#52667a" points="262.52,-171.6 262.52,-289.6 369.54,-289.6 369.54,-171.6 262.52,-171.6"/>
</g>
<!-- content.content_assets -->
<g id="node5" class="node">
<title>content.content_assets</title>
<polygon fill="#ffffff" stroke="none" points="260.58,-362.8 260.58,-424 371.48,-424 371.48,-362.8 260.58,-362.8"/>
<polygon fill="#dbe7f3" stroke="none" points="261.58,-392.2 261.58,-423 370.48,-423 370.48,-392.2 261.58,-392.2"/>
<text xml:space="preserve" text-anchor="start" x="268.58" y="-404.4" font-family="Arial" font-weight="bold" font-size="14.00">Content Asset</text>
<text xml:space="preserve" text-anchor="start" x="268.58" y="-373.2" font-family="Arial" font-size="12.00">PK &#160;id</text>
<polygon fill="none" stroke="#52667a" points="260.58,-362.8 260.58,-424 371.48,-424 371.48,-362.8 260.58,-362.8"/>
</g>
</g>
</svg>
