<?xml version="1.0" encoding="UTF-8" standalone="no"?>
<!DOCTYPE svg PUBLIC "-//W3C//DTD SVG 1.1//EN"
 "http://www.w3.org/Graphics/SVG/1.1/DTD/svg11.dtd">
<!-- Generated by graphviz version 14.1.3 (20260303.0454)
 -->
<!-- Title: G Pages: 1 -->
<svg width="296pt" height="235pt"
 viewBox="0.00 0.00 296.00 235.00" xmlns="http://www.w3.org/2000/svg" xmlns:xlink="http://www.w3.org/1999/xlink">
<g id="graph0" class="graph" transform="scale(1 1) rotate(0) translate(12.96 221.76)">
<title>G</title>
<polygon fill="white" stroke="none" points="-12.96,12.96 -12.96,-221.76 282.63,-221.76 282.63,12.96 -12.96,12.96"/>
<!-- user.users&#45;&gt;access.point_wallets -->
<g id="0" class="edge">
<title>user.users&#45;&gt;access.point_wallets</title>
<path fill="none" stroke="#405369" stroke-width="1.2" stroke-dasharray="5,2" d="M102.43,-141.06C95.09,-128.2 86.66,-113.44 78.67,-99.44"/>
<polygon fill="#405369" stroke="#405369" stroke-width="1.2" points="109.3,-145.03 102.35,-149 101.56,-147.61 108.51,-143.64 109.3,-145.03"/>
<polyline fill="none" stroke="#405369" stroke-width="1.2" points="106.22,-147.71 104.24,-144.24"/>
<polygon fill="#405369" stroke="#405369" stroke-width="1.2" points="107.32,-141.56 100.37,-145.53 99.58,-144.14 106.53,-140.17 107.32,-141.56"/>
<polyline fill="none" stroke="#405369" stroke-width="1.2" points="104.24,-144.24 102.26,-140.76"/>
<polygon fill="#405369" stroke="#405369" stroke-width="1.2" points="69.87,-92.09 76.82,-88.12 77.61,-89.51 70.66,-93.48 69.87,-92.09"/>
<polyline fill="none" stroke="#405369" stroke-width="1.2" points="72.95,-89.41 74.93,-92.88"/>
<ellipse fill="none" stroke="#405369" stroke-width="1.2" cx="76.81" cy="-96.19" rx="3.2" ry="3.2"/>
</g>
<!-- user.users&#45;&gt;access.point_ledger_entries -->
<g id="1" class="edge">
<title>user.users&#45;&gt;access.point_ledger_entries</title>
<path fill="none" stroke="#405369" stroke-width="1.2" stroke-dasharray="5,2" d="M143.96,-141.06C150.74,-129.33 158.45,-116.01 165.9,-103.12"/>
<polygon fill="#405369" stroke="#405369" stroke-width="1.2" points="143.97,-149.02 137.05,-145.02 137.85,-143.63 144.78,-147.64 143.97,-149.02"/>
<polyline fill="none" stroke="#405369" stroke-width="1.2" points="140.11,-147.71 142.11,-144.25"/>
<polygon fill="#405369" stroke="#405369" stroke-width="1.2" points="145.98,-145.56 139.05,-141.55 139.85,-140.17 146.78,-144.17 145.98,-145.56"/>
<polyline fill="none" stroke="#405369" stroke-width="1.2" points="142.11,-144.25 144.12,-140.79"/>
<polygon fill="#405369" stroke="#405369" stroke-width="1.2" points="169.62,-96.68 176.75,-91.56 171.83,-92.87 173.43,-90.11 173.43,-90.11 173.43,-90.11 171.83,-92.87 170.51,-87.96 169.62,-96.68"/>
<ellipse fill="none" stroke="#405369" stroke-width="1.2" cx="166.99" cy="-101.24" rx="3.2" ry="3.2"/>
</g>
<!-- access.point_wallets -->
<g id="node1" class="node">
<title>access.point_wallets</title>
<polygon fill="#ffffff" stroke="none" points="0,0 0,-89.6 96.11,-89.6 96.11,0 0,0"/>
<polygon fill="#dbe7f3" stroke="none" points="1,-57.8 1,-88.6 95.11,-88.6 95.11,-57.8 1,-57.8"/>
<text xml:space="preserve" text-anchor="start" x="8" y="-70" font-family="Arial" font-weight="bold" font-size="14.00">Point Wallet</text>
<text xml:space="preserve" text-anchor="start" x="8" y="-38.8" font-family="Arial" font-size="12.00">PK &#160;user_id</text>
<text xml:space="preserve" text-anchor="start" x="8" y="-10.4" font-family="Arial" font-size="12.00">Ref &#160;user_id</text>
<polygon fill="none" stroke="#52667a" points="0,0 0,-89.6 96.11,-89.6 96.11,0 0,0"/>
</g>
<!-- access.point_ledger_entries -->
<g id="node2" class="node">
<title>access.point_ledger_entries</title>
<polygon fill="#ffffff" stroke="none" points="128.44,0 128.44,-89.6 269.67,-89.6 269.67,0 128.44,0"/>
<polygon fill="#dbe7f3" stroke="none" points="129.44,-57.8 129.44,-88.6 268.67,-88.6 268.67,-57.8 129.44,-57.8"/>
<text xml:space="preserve" text-anchor="start" x="136.44" y="-70" font-family="Arial" font-weight="bold" font-size="14.00">Point Ledger Entry</text>
<text xml:space="preserve" text-anchor="start" x="136.44" y="-38.8" font-family="Arial" font-size="12.00">PK &#160;id</text>
<text xml:space="preserve" text-anchor="start" x="136.44" y="-10.4" font-family="Arial" font-size="12.00">Ref &#160;user_id</text>
<polygon fill="none" stroke="#52667a" points="128.44,0 128.44,-89.6 269.67,-89.6 269.67,0 128.44,0"/>
</g>
<!-- user.users -->
<g id="node3" class="node">
<title>user.users</title>
<polygon fill="#f1f3f5" stroke="none" points="78.1,-147.6 78.1,-208.8 168.01,-208.8 168.01,-147.6 78.1,-147.6"/>
<polygon fill="#e3e7ec" stroke="none" points="79.1,-177 79.1,-207.8 167.01,-207.8 167.01,-177 79.1,-177"/>
<text xml:space="preserve" text-anchor="start" x="86.1" y="-189.2" font-family="Arial" font-weight="bold" font-size="14.00">User [user]</text>
<text xml:space="preserve" text-anchor="start" x="86.1" y="-158" font-family="Arial" font-size="12.00">PK &#160;id</text>
<polygon fill="none" stroke="#52667a" points="78.1,-147.6 78.1,-208.8 168.01,-208.8 168.01,-147.6 78.1,-147.6"/>
</g>
</g>
</svg>
